<?xml version="1.0" encoding="UTF-8"?>
<svg version="1.1" xmlns="http://www.w3.org/2000/svg" width="1024" height="1024">
<path d="M0 0 C337.92 0 675.84 0 1024 0 C1024 337.92 1024 675.84 1024 1024 C686.08 1024 348.16 1024 0 1024 C0 686.08 0 348.16 0 0 Z " fill="#1D222B" transform="translate(0,0)"/>
<path d="M0 0 C9.98940219 -0.07006892 19.97874418 -0.12309611 29.96834373 -0.15543652 C34.60886808 -0.17097241 39.24922208 -0.19198455 43.88964844 -0.22631836 C48.38305923 -0.25934949 52.87630808 -0.2769433 57.36983109 -0.28463173 C59.06870695 -0.29009795 60.7675758 -0.30076694 62.46638107 -0.31719017 C77.019706 -0.45205587 92.48409299 0.10479006 105.9375 6.25 C106.63439941 6.55373535 107.33129883 6.8574707 108.04931641 7.17041016 C131.27639777 17.58847881 148.30891924 35.98306841 157.74609375 59.51171875 C165.95442547 82.34673504 163.87107064 109.0424764 154 131 C147.3803797 144.97266443 136.39066349 158.93559481 123 167 C122.34 167 121.68 167 121 167 C124.10916717 170.16674434 127.29471864 173.18996341 130.60449219 176.14526367 C147.3400329 191.19483522 160.88703829 210.99739167 162.17700195 234.18115234 C162.71604028 264.13106656 162.71604028 264.13106656 158 277 C157.62617187 278.06605469 157.25234375 279.13210938 156.8671875 280.23046875 C148.35535694 302.46833071 130.6115381 320.37699118 109.125 330.33203125 C93.36592608 336.85234809 77.7829516 338.59498516 60.8671875 338.390625 C59.00961932 338.38313886 57.1520431 338.3774572 55.29446411 338.37347412 C50.47101962 338.35840415 45.64807849 338.31929 40.8248291 338.2746582 C35.8767782 338.23329647 30.92864373 338.21537695 25.98046875 338.1953125 C16.32009471 338.15277203 6.66008966 338.08475533 -3 338 C-0.86610874 336.38736893 1.26998242 334.81590175 3.48046875 333.30859375 C20.55615889 321.50591615 30.12478738 304.70613406 36.56689453 285.31396484 C36.83567413 284.50551117 37.10445374 283.6970575 37.38137817 282.86410522 C37.58552338 282.2489505 37.78966858 281.63379578 38 281 C39.20946289 281.00112793 40.41892578 281.00225586 41.66503906 281.00341797 C46.20554064 280.9997126 50.74500097 280.95660855 55.28515625 280.90234375 C57.24016557 280.88431336 59.19530093 280.87659142 61.15039062 280.87988281 C74.97809491 280.89402157 85.2420507 280.2224196 96 270.625 C103.67749156 262.14426723 105.48156835 251.88441591 105.31640625 240.73046875 C104.87652393 235.54420194 103.5082077 231.52801851 101 227 C100.66097656 226.36707031 100.32195312 225.73414063 99.97265625 225.08203125 C95.37502129 217.67018557 87.55566374 212.93161509 79.30249023 210.59814453 C71.5978139 209.20267939 63.68318535 209.4103487 55.875 209.3125 C54.04164301 209.27927527 52.20830857 209.24478097 50.375 209.20898438 C45.91679208 209.12467161 41.45862996 209.05758613 37 209 C36.75983154 207.87505127 36.51966309 206.75010254 36.2722168 205.59106445 C34.53255148 197.68232705 32.85750569 190.28333549 28.8125 183.1875 C24.35991135 175.00152486 24.35991135 175.00152486 24 172 C24.62627128 169.98698517 25.29835358 167.98799818 26 166 C26.88952383 161.5879618 27.02943931 157.48967399 26.921875 152.98828125 C26.89609375 151.90095703 26.8703125 150.81363281 26.84375 149.69335938 C26.78091186 147.42725886 26.70261904 145.16153751 26.609375 142.89648438 C26.58875 141.81302734 26.568125 140.72957031 26.546875 139.61328125 C26.51432617 138.63141846 26.48177734 137.64955566 26.44824219 136.63793945 C27 134 27 134 28.92041016 131.6784668 C33.2433443 129.32234089 36.8784142 129.47041745 41.7265625 129.53125 C42.67002533 129.52420044 43.61348816 129.51715088 44.58554077 129.5098877 C48.60583791 129.48051612 52.625646 129.49693103 56.64599609 129.50927734 C77.34953284 129.63836085 77.34953284 129.63836085 94.7734375 119.28515625 C102.52547727 111.02612654 105.34659728 102.32495579 105.2109375 91.16015625 C104.53955694 81.10188086 100.06644968 72.62832955 92.8125 65.6875 C82.22575442 57.6805921 69.95332638 58.34589054 57.3125 58.25 C55.43551989 58.22179424 53.5585649 58.1918605 51.68164062 58.16015625 C47.1211394 58.08684068 42.56093503 58.03693323 38 58 C37.75548096 56.87142578 37.51096191 55.74285156 37.2590332 54.58007812 C34.77792088 43.17696978 34.77792088 43.17696978 30.1875 32.5 C29.84203125 31.84257812 29.4965625 31.18515625 29.140625 30.5078125 C22.70010173 18.57043237 12.66982286 6.57472206 0 1 C0 0.67 0 0.34 0 0 Z " fill="#41A1D2" transform="translate(485,346)"/>
<path d="M0 0 C13.99210842 1.8330273 26.3572434 12.95172048 34.8125 23.75 C42.93618342 35.31693273 48.59279989 47.29196233 52 61 C52.47953125 62.87171875 52.47953125 62.87171875 52.96875 64.78125 C59.43141211 93.75019569 57.90239059 132.66085335 41.875 158.3125 C30.9090826 174.82950199 14.96682848 186.0855005 -4.41796875 190.55786133 C-15.78574879 192.50444318 -29.76357139 192.67584077 -40 187 C-41.051875 186.484375 -42.10375 185.96875 -43.1875 185.4375 C-46.29779843 181.25468487 -45.66933468 177.00761499 -45 172 C-44.20031985 168.63113468 -43.22850276 165.35407931 -42.203125 162.046875 C-40.77091336 157.37457801 -39.67094108 152.63267639 -38.5625 147.875 C-35.59011706 135.20627763 -32.51853919 122.56331528 -29.125 110 C-26.84150891 101.53437449 -24.74243689 93.02318571 -22.63720703 84.51171875 C-21.21969804 78.7996346 -19.76627578 73.10229077 -18.2265625 67.421875 C-16.26091915 60.1014173 -14.43432015 52.74922506 -12.6171875 45.390625 C-12.31455994 44.1675061 -12.01193237 42.94438721 -11.70013428 41.6842041 C-10.43424264 36.56633879 -9.16840637 31.44847488 -7.91259766 26.328125 C-6.98714547 22.55571185 -6.05229546 18.78565666 -5.1171875 15.015625 C-4.83382538 13.85323303 -4.55046326 12.69084106 -4.2585144 11.4932251 C-3.85767136 9.88444489 -3.85767136 9.88444489 -3.44873047 8.24316406 C-3.10042679 6.82877045 -3.10042679 6.82877045 -2.74508667 5.38580322 C-2 3 -2 3 0 0 Z " fill="#4B69CC" transform="translate(459,492)"/>
<path d="M0 0 C-0.50239231 7.0334924 -2.06741681 13.61875838 -3.83203125 20.4296875 C-4.88648228 24.50642197 -5.85607205 28.5998593 -6.81298828 32.70043945 C-8.6941023 40.75657867 -10.71572607 48.74340307 -12.98413086 56.69873047 C-14.97763458 63.76094612 -16.73926748 70.87669275 -18.5 78 C-20.43889524 85.8440912 -22.40899469 93.66682646 -24.625 101.4375 C-26.69945572 108.71541735 -28.47673436 116.04556093 -30.20019531 123.41381836 C-31.34638008 128.30035021 -32.55033866 133.15794005 -33.875 138 C-36.34994817 147.064625 -38.47382728 156.21775265 -40.62646484 165.36328125 C-40.91859863 166.59175781 -41.21073242 167.82023438 -41.51171875 169.0859375 C-41.77428467 170.2001709 -42.03685059 171.3144043 -42.30737305 172.46240234 C-43 175 -43 175 -44 176 C-46.90555089 176.61820232 -48.19345109 176.77790214 -51 176 C-54.72324621 173.38284804 -57.82865935 170.25124845 -61 167 C-61.70511719 166.31550781 -62.41023438 165.63101563 -63.13671875 164.92578125 C-72.44076924 155.32926552 -77.83027532 142.83581577 -81 130 C-81.2638147 129.09737427 -81.2638147 129.09737427 -81.53295898 128.17651367 C-83.55226955 120.5886108 -83.35224342 112.85460566 -83.3125 105.0625 C-83.31067719 104.3263446 -83.30885437 103.59018921 -83.30697632 102.83172607 C-83.26019796 91.6259474 -82.64634181 80.91583725 -80 70 C-79.82839355 69.23623047 -79.65678711 68.47246094 -79.47998047 67.68554688 C-73.96427509 43.25673913 -63.77506465 20.90827624 -42 7 C-31.3904756 1.39022892 -11.80178746 -5.90089373 0 0 Z " fill="#4D5CC9" transform="translate(446,488)"/>
<path d="M0 0 C2.64247564 0.02124215 5.28217331 0.00024687 7.92456055 -0.02539062 C28.5161067 -0.06122488 46.8575733 4.84048082 62.09960938 19.31054688 C66.44042884 23.64316063 69.98264615 28.258606 73.11010742 33.52148438 C73.7984668 34.67003906 73.7984668 34.67003906 74.50073242 35.84179688 C81.1368033 47.95462504 82.99998002 61.30785676 83.23583984 74.91186523 C83.27727742 76.53677514 83.35293839 78.16114526 83.46142578 79.78295898 C84.33015057 92.83734513 84.33015057 92.83734513 80.64093018 97.29779053 C76.58131862 100.92347329 72.15069327 103.50748743 67.11010742 105.52148438 C63.52761553 104.97099861 61.30737328 103.40713878 58.36010742 101.33398438 C45.86269894 93.29520041 33.83684962 90.55793671 19.11010742 90.52148438 C19.09608887 89.61438721 19.09608887 89.61438721 19.08178711 88.68896484 C19.0277902 85.92400557 18.94420348 83.16068531 18.86010742 80.39648438 C18.84592773 79.44515625 18.83174805 78.49382812 18.81713867 77.51367188 C18.61726556 71.75732628 18.19589212 67.91437053 14.11010742 63.52148438 C7.24061033 58.11051747 -0.05718464 59.02548111 -8.46606445 59.12109375 C-17.88431519 59.024116 -24.69863672 56.56271258 -31.76489258 50.27148438 C-37.70719179 43.88070975 -40.20842729 35.71940313 -40.10864258 27.15039062 C-39.45937202 19.34754985 -35.38982882 12.65046705 -29.70239258 7.39648438 C-20.30223817 0.04897232 -11.55344054 -0.11022455 0 0 Z " fill="#3CB2D8" transform="translate(429.889892578125,345.478515625)"/>
<path d="M0 0 C3.60282197 3.20250841 4.6606467 6.71802476 6.0078125 11.17578125 C8.16521641 17.31673804 11.18192585 23.13994992 14 29 C15.83111328 28.93039062 15.83111328 28.93039062 17.69921875 28.859375 C32.36839892 28.46638382 44.50011108 30.01270908 56 40 C58.18232505 42.247926 60.07552417 44.51843906 62 47 C70.39011821 42.15962932 70.39011821 42.15962932 78.625 37.0625 C82 35 82 35 84 35 C84.28875 34.360625 84.5775 33.72125 84.875 33.0625 C86 31 86 31 88 30 C91.83614957 29.64480097 94.14629634 29.45275406 97.4375 31.5625 C99.63021887 34.98314143 99.63007693 37.00951279 99 41 C97.125 43.9375 97.125 43.9375 94 46 C91.96875 45.91796875 91.96875 45.91796875 89.625 45.625 C81.42345173 45.05337694 74.95839787 52.10616921 69 57 C69.2165625 57.57363281 69.433125 58.14726562 69.65625 58.73828125 C71.75650264 65.14599648 72.30219843 71.12356323 72.3125 77.8125 C72.32023437 79.03030151 72.32023437 79.03030151 72.328125 80.27270508 C72.27483649 84.89500742 71.75669129 88.65376379 70 93 C66.25230656 89.87692214 62.75521534 86.76318025 59.4375 83.1875 C46.85954052 70.53697537 28.34324673 62.24056237 10.52734375 61.734375 C8.66406254 61.72915207 6.80072338 61.73441904 4.9375 61.75 C4.00873047 61.74226563 3.07996094 61.73453125 2.12304688 61.7265625 C-3.87736423 61.74340576 -9.18879411 62.50110145 -15 64 C-14.56585724 54.01471662 -7.89079612 45.81213406 -1 39 C2.63265306 36 2.63265306 36 5 36 C3.65631682 32.88134455 2.26989791 29.78354743 0.875 26.6875 C0.49601562 25.80642578 0.11703125 24.92535156 -0.2734375 24.01757812 C-2.69629212 18.66559384 -2.69629212 18.66559384 -7.1875 15.0078125 C-8.115625 14.67523438 -9.04375 14.34265625 -10 14 C-12.44984292 11.63181851 -12.94286378 10.39179125 -13.4375 7 C-12.90330528 3.3369505 -11.8550293 2.26722915 -9 0 C-5.77839187 -1.61080407 -3.42436421 -0.82657067 0 0 Z " fill="#3F9CD3" transform="translate(430,418)"/>
<path d="M0 0 C1.18239258 0.02707031 1.18239258 0.02707031 2.38867188 0.0546875 C4.32214261 0.10155952 6.25498285 0.1732959 8.1875 0.25 C6.98015955 3.10371378 5.89992352 4.51734281 3.578125 6.67578125 C-0.44658245 11.37570577 0.70792092 17.61830798 0.9375 23.4375 C0.99864099 25.78505915 1.05610782 28.13271774 1.109375 30.48046875 C1.14643555 31.51582764 1.18349609 32.55118652 1.22167969 33.61791992 C1.1875 36.25 1.1875 36.25 0.1875 39.25 C-0.26469629 44.78275462 0.8862185 48.45139195 3.4375 53.25 C7.403984 61.17694754 11.1875 70.26711455 11.1875 79.25 C6.2375 79.25 1.2875 79.25 -3.8125 79.25 C-4.10640625 77.68765625 -4.10640625 77.68765625 -4.40625 76.09375 C-6.37729896 66.40475194 -9.39373676 58.22910063 -14.10546875 49.54296875 C-17.21514404 43.54421299 -17.21514404 43.54421299 -15.9375 39.4375 C-15.56625 38.385625 -15.195 37.33375 -14.8125 36.25 C-13.92297617 31.8379618 -13.78306069 27.73967399 -13.890625 23.23828125 C-13.91640625 22.15095703 -13.9421875 21.06363281 -13.96875 19.94335938 C-14.03158814 17.67725886 -14.10988096 15.41153751 -14.203125 13.14648438 C-14.35792842 5.01446727 -14.35792842 5.01446727 -11.84765625 1.49609375 C-7.77037522 -0.17784788 -4.35754582 -0.18993494 0 0 Z " fill="#3275AC" transform="translate(525.8125,475.75)"/>
<path d="M0 0 C13.2 0 26.4 0 40 0 C40 0.33 40 0.66 40 1 C31.09 1 22.18 1 13 1 C13 3.31 13 5.62 13 8 C12.37955869 10.64373886 11.71642762 13.12013955 10.875 15.6875 C10.5361377 16.73514526 10.5361377 16.73514526 10.19042969 17.80395508 C5.45018198 31.9712002 -2.49478195 43.59373834 -12 55 C7.8 55 27.6 55 48 55 C48 55.33 48 55.66 48 56 C43.57323972 57.10056597 39.25267162 57.1347519 34.72143555 57.11352539 C33.90140549 57.11367142 33.08137543 57.11381744 32.23649597 57.1139679 C29.53654296 57.1132734 26.83665965 57.1055027 24.13671875 57.09765625 C22.26056455 57.09579043 20.38440987 57.0943673 18.508255 57.09336853 C13.577979 57.0895563 8.6477326 57.07973707 3.71746826 57.06866455 C-1.31660563 57.05842259 -6.35068431 57.05386494 -11.38476562 57.04882812 C-21.2565234 57.03811364 -31.12825924 57.02105276 -41 57 C-38.86610874 55.38736893 -36.73001758 53.81590175 -34.51953125 52.30859375 C-15.79655283 39.36731429 -7.01985268 21.05955803 0 0 Z " fill="#4048A2" transform="translate(523,627)"/>
<path d="M0 0 C9.57 0 19.14 0 29 0 C29 0.33 29 0.66 29 1 C27.02 1.33 25.04 1.66 23 2 C23.66 2.45375 24.32 2.9075 25 3.375 C25.66 3.91125 26.32 4.4475 27 5 C27 5.66 27 6.32 27 7 C27.598125 7.2475 28.19625 7.495 28.8125 7.75 C31.31626919 9.18072525 32.48072388 10.5691582 34 13 C34 13.66 34 14.32 34 15 C34.598125 15.226875 35.19625 15.45375 35.8125 15.6875 C38.61183411 17.36710046 39.58100061 19.09105125 41 22 C41 22.99 41 23.98 41 25 C41.66 25 42.32 25 43 25 C48.90873045 41.11993452 48.90873045 41.11993452 50.53515625 49.14453125 C50.83185257 51.00320956 50.83185257 51.00320956 52 52 C52 53.65 52 55.3 52 57 C59.59 57 67.18 57 75 57 C75 57.33 75 57.66 75 58 C62.79 58 50.58 58 38 58 C36.68 52.39 35.36 46.78 34 41 C32.80093039 37.9343375 31.73689565 35.32500251 30.1875 32.5 C29.84203125 31.84257812 29.4965625 31.18515625 29.140625 30.5078125 C22.70010173 18.57043237 12.66982286 6.57472206 0 1 C0 0.67 0 0.34 0 0 Z " fill="#2BA3A8" transform="translate(485,346)"/>
<path d="M0 0 C0.66 0 1.32 0 2 0 C2.51046875 1.17755859 2.51046875 1.17755859 3.03125 2.37890625 C8.05320028 13.26425062 13.78827324 18.82155554 25 23 C25 23.66 25 24.32 25 25 C24.21496094 25.3403125 23.42992187 25.680625 22.62109375 26.03125 C11.73574938 31.05320028 6.17844446 36.78827324 2 48 C1.34 48 0.68 48 0 48 C-0.3403125 47.21496094 -0.680625 46.42992187 -1.03125 45.62109375 C-6.05320028 34.73574938 -11.78827324 29.17844446 -23 25 C-23 24.34 -23 23.68 -23 23 C-22.21496094 22.6596875 -21.42992187 22.319375 -20.62109375 21.96875 C-9.73574938 16.94679972 -4.17844446 11.21172676 0 0 Z " fill="#8B8D92" transform="translate(967,944)"/>
<path d="M0 0 C2.31 1.98 4.62 3.96 7 6 C5.52247468 11.03106724 2.54592654 13.84053145 -1.125 17.375 C-1.71394043 17.9529834 -2.30288086 18.5309668 -2.90966797 19.12646484 C-6.48261241 22.6091289 -10.13652377 25.9580646 -13.9609375 29.1640625 C-15.65677645 30.69096731 -17.21933026 32.24636558 -18.7890625 33.8984375 C-19.27874512 34.40938965 -19.76842773 34.9203418 -20.27294922 35.44677734 C-21.24147128 36.46524632 -22.19932568 37.49399089 -23.14501953 38.53369141 C-24.484375 39.9375 -24.484375 39.9375 -27 42 C-30.54606521 41.70584186 -32.24965837 40.10595392 -34.671875 37.62109375 C-35.33574219 36.94755859 -35.99960937 36.27402344 -36.68359375 35.58007812 C-37.36550781 34.87302734 -38.04742187 34.16597656 -38.75 33.4375 C-39.44738281 32.72658203 -40.14476562 32.01566406 -40.86328125 31.28320312 C-42.5824658 29.52869286 -44.29425872 27.76756648 -46 26 C-44.44805246 22.67240077 -42.69378051 20.51419515 -40 18 C-36.81440048 19.39633107 -34.76056155 21.04557493 -32.375 23.5625 C-29.95478041 26.14015389 -29.95478041 26.14015389 -27 28 C-26.75016357 27.42491699 -26.50032715 26.84983398 -26.24291992 26.25732422 C-24.82488907 23.68197297 -23.19739037 21.95467205 -21.11328125 19.8828125 C-20.33919922 19.11066406 -19.56511719 18.33851563 -18.76757812 17.54296875 C-17.95740234 16.74503906 -17.14722656 15.94710937 -16.3125 15.125 C-15.52166016 14.33480469 -14.73082031 13.54460938 -13.91601562 12.73046875 C-9.43115706 8.27894109 -4.85600747 4.04342255 0 0 Z " fill="#F6F5F7" transform="translate(480,608)"/>
<path d="M0 0 C0.66 0.33 1.32 0.66 2 1 C1.7834375 2.30324219 1.7834375 2.30324219 1.5625 3.6328125 C1.376875 4.78523438 1.19125 5.93765625 1 7.125 C0.814375 8.26195312 0.62875 9.39890625 0.4375 10.5703125 C0.03043951 13.76137602 -0.07809902 16.78817791 0 20 C3.63 20.33 7.26 20.66 11 21 C11 21.33 11 21.66 11 22 C9.94941406 22.04898437 8.89882813 22.09796875 7.81640625 22.1484375 C0.34124509 22.53376426 -6.73596197 23.05427553 -14 25 C-13.55662533 14.8023826 -6.74034237 7.1391792 0 0 Z " fill="#477BC6" transform="translate(429,457)"/>
<path d="M0 0 C1.258125 0.01417969 2.51625 0.02835937 3.8125 0.04296875 C5.070625 0.04941406 6.32875 0.05585938 7.625 0.0625 C10.8125 0.23046875 10.8125 0.23046875 12.8125 1.23046875 C12.21796697 10.82500178 12.21796697 10.82500178 8.8125 14.23046875 C8.214375 13.15796875 7.61625 12.08546875 7 10.98046875 C6.27114806 9.73028521 5.54200015 8.48027416 4.8125 7.23046875 C4.379375 6.44671875 3.94625 5.66296875 3.5 4.85546875 C0.92883415 2.37953126 -1.73360928 2.49113975 -5.1875 2.23046875 C-3.1875 0.23046875 -3.1875 0.23046875 0 0 Z " fill="#3F8CD1" transform="translate(433.1875,486.76953125)"/>
<path d="M0 0 C0.33 0 0.66 0 1 0 C2.12029814 5.48946087 1.79217969 8.83430559 0 14 C-0.33 14 -0.66 14 -1 14 C-1.08333357 9.1666528 -0.95261487 4.76307437 0 0 Z " fill="#4642A0" transform="translate(364,570)"/>
</svg>
